<?xml version="1.0" encoding="utf-8"?>
<svg viewBox="81.69 178.33 432.96 233.45" width="432.96" height="233.45" xmlns="http://www.w3.org/2000/svg">
  <defs>
    <style>.cls-1{fill:#1d1d1b;}</style>
  </defs>
  <path class="cls-1" d="m81.69,398.81c0-7.38,5.79-12.99,12.99-12.99,3.6,0,6.59,1.4,8.82,3.63.25.25.22.5,0,.76l-2.52,2.7c-.22.25-.5.25-.76.04-1.51-1.26-3.31-2.09-5.54-2.09-4.43,0-7.77,3.38-7.77,7.96s3.35,7.92,7.77,7.92c2.23,0,4.03-.83,5.54-2.09.25-.22.54-.22.76.04l2.52,2.7c.22.22.25.47,0,.72-2.23,2.27-5.22,3.67-8.82,3.67-7.2,0-12.99-5.58-12.99-12.96Z"/>
  <path class="cls-1" d="m105.27,410.69l8.42-24.15c.11-.29.4-.43.68-.43h4.35c.29,0,.58.14.68.43l8.42,24.15c.14.36-.07.61-.47.61h-4.25c-.29,0-.5-.11-.61-.43l-1.22-3.71h-9.5l-1.22,3.71c-.11.32-.32.43-.61.43h-4.25c-.4,0-.58-.25-.43-.61Zm14.54-8.1l-3.28-10.01-3.28,10.01h6.55Z"/>
  <path class="cls-1" d="m130.87,410.76v-24.12c0-.32.22-.54.54-.54h12.63c.32,0,.58.22.58.54v3.49c0,.32-.25.54-.58.54h-8.03v5.4h7.56c.32,0,.58.22.58.54v3.49c0,.32-.25.54-.58.54h-7.56v10.11c0,.32-.22.54-.54.54h-4.07c-.32,0-.54-.22-.54-.54Z"/>
  <path class="cls-1" d="m148.51,410.76v-24.12c0-.32.22-.54.54-.54h12.81c.32,0,.54.22.54.54v3.49c0,.32-.22.54-.54.54h-8.21v5.58h7.74c.32,0,.54.22.54.54v3.49c0,.32-.22.54-.54.54h-7.74v5.9h8.21c.32,0,.54.22.54.54v3.49c0,.32-.22.54-.54.54h-12.81c-.32,0-.54-.22-.54-.54Z"/>
  <path class="cls-1" d="m166.51,410.76v-24.12c0-.32.22-.54.54-.54h4.07c.32,0,.54.22.54.54v20.09h7.7c.32,0,.54.22.54.54v3.49c0,.32-.22.54-.54.54h-12.31c-.32,0-.54-.22-.54-.54Z"/>
  <path class="cls-1" d="m183.25,410.76v-24.12c0-.32.22-.54.54-.54h4.07c.32,0,.54.22.54.54v24.12c0,.32-.22.54-.54.54h-4.07c-.32,0-.54-.22-.54-.54Z"/>
  <path class="cls-1" d="m192.07,410.65l7.24-12.24-6.88-11.66c-.22-.4-.07-.65.36-.65h4.36c.29,0,.54.11.68.36l4.28,7.24,4.28-7.24c.11-.25.36-.36.65-.36h4.36c.43,0,.58.25.36.65l-6.88,11.66,7.24,12.24c.22.4.07.65-.36.65h-4.43c-.29,0-.5-.11-.65-.36l-4.57-7.81-4.61,7.81c-.14.25-.36.36-.65.36h-4.43c-.43,0-.58-.25-.36-.65Z"/>
  <path class="cls-1" d="m221.15,398.81c0-7.38,5.79-12.99,12.99-12.99,3.6,0,6.59,1.4,8.82,3.63.25.25.22.5,0,.76l-2.52,2.7c-.22.25-.5.25-.76.04-1.51-1.26-3.31-2.09-5.54-2.09-4.43,0-7.77,3.38-7.77,7.96s3.35,7.92,7.77,7.92c2.23,0,4.03-.83,5.54-2.09.25-.22.54-.22.76.04l2.52,2.7c.22.22.25.47,0,.72-2.23,2.27-5.22,3.67-8.82,3.67-7.2,0-12.99-5.58-12.99-12.96Z"/>
  <path class="cls-1" d="m244.88,398.81c0-7.31,5.79-12.99,12.96-12.99s12.96,5.69,12.96,12.99-5.79,12.96-12.96,12.96-12.96-5.69-12.96-12.96Zm12.96,7.92c4.43,0,7.74-3.42,7.74-7.92s-3.31-7.96-7.74-7.96-7.74,3.42-7.74,7.96,3.35,7.92,7.74,7.92Z"/>
  <path class="cls-1" d="m274.54,410.76v-24.12c0-.32.22-.54.54-.54h12.63c.32,0,.58.22.58.54v3.49c0,.32-.25.54-.58.54h-8.03v5.4h7.56c.32,0,.58.22.58.54v3.49c0,.32-.25.54-.58.54h-7.56v10.11c0,.32-.22.54-.54.54h-4.07c-.32,0-.54-.22-.54-.54Z"/>
  <path class="cls-1" d="m292.18,410.76v-24.12c0-.32.22-.54.54-.54h12.63c.32,0,.58.22.58.54v3.49c0,.32-.25.54-.58.54h-8.03v5.4h7.56c.32,0,.58.22.58.54v3.49c0,.32-.25.54-.58.54h-7.56v10.11c0,.32-.22.54-.54.54h-4.07c-.32,0-.54-.22-.54-.54Z"/>
  <path class="cls-1" d="m309.82,410.76v-24.12c0-.32.22-.54.54-.54h12.81c.32,0,.54.22.54.54v3.49c0,.32-.22.54-.54.54h-8.21v5.58h7.74c.32,0,.54.22.54.54v3.49c0,.32-.22.54-.54.54h-7.74v5.9h8.21c.32,0,.54.22.54.54v3.49c0,.32-.22.54-.54.54h-12.81c-.32,0-.54-.22-.54-.54Z"/>
  <path class="cls-1" d="m327.82,410.76v-24.12c0-.32.22-.54.54-.54h12.81c.32,0,.54.22.54.54v3.49c0,.32-.22.54-.54.54h-8.21v5.58h7.74c.32,0,.54.22.54.54v3.49c0,.32-.22.54-.54.54h-7.74v5.9h8.21c.32,0,.54.22.54.54v3.49c0,.32-.22.54-.54.54h-12.81c-.32,0-.54-.22-.54-.54Z"/>
  <path class="cls-1" d="m364.25,410.94l-5.33-8.46h-1.84v8.28c0,.32-.22.54-.54.54h-4.07c-.32,0-.54-.22-.54-.54v-24.12c0-.32.22-.54.54-.54h7.6c5.97,0,8.85,3.35,8.85,8.17,0,3.67-1.62,6.44-5,7.63l5.65,8.75c.25.4.07.65-.36.65h-4.32c-.29,0-.5-.11-.65-.36Zm-4.36-13.03c2.2,0,4.1-.76,4.1-3.63s-1.91-3.6-4.1-3.6h-2.81v7.23h2.81Z"/>
  <path class="cls-1" d="m371.6,398.81c0-7.31,5.79-12.99,12.96-12.99s12.96,5.69,12.96,12.99-5.8,12.96-12.96,12.96-12.96-5.69-12.96-12.96Zm12.96,7.92c4.43,0,7.74-3.42,7.74-7.92s-3.31-7.96-7.74-7.96-7.74,3.42-7.74,7.96,3.35,7.92,7.74,7.92Z"/>
  <path class="cls-1" d="m398.24,410.69l8.42-24.15c.11-.29.4-.43.68-.43h4.36c.29,0,.58.14.68.43l8.42,24.15c.14.36-.07.61-.47.61h-4.25c-.29,0-.5-.11-.61-.43l-1.22-3.71h-9.5l-1.22,3.71c-.11.32-.32.43-.61.43h-4.25c-.4,0-.58-.25-.43-.61Zm14.54-8.1l-3.28-10.01-3.28,10.01h6.55Z"/>
  <path class="cls-1" d="m422.57,407.81c-.18-.25-.18-.5.07-.79l2.09-2.41c.25-.29.54-.32.83-.07,1.58,1.62,3.02,2.48,5.08,2.48s3.53-.9,3.53-2.7c0-1.69-1.26-2.3-3.02-3.1l-3.06-1.44c-2.66-1.22-5.04-3.13-5.04-6.88,0-4.57,3.49-7.09,7.78-7.09,2.99,0,5.4,1.19,7.38,3.31.25.25.25.54.04.83l-2.05,2.48c-.22.29-.5.36-.79.14-1.55-1.37-2.81-2.05-4.39-2.05-1.84,0-2.99.9-2.99,2.41s1.01,2.05,2.95,2.95l2.59,1.19c2.74,1.29,5.62,2.99,5.62,7.23,0,5.08-4.14,7.42-8.42,7.42-3.92,0-6.7-1.91-8.17-3.92Z"/>
  <path class="cls-1" d="m446.41,410.76v-20.08h-4.93c-.32,0-.54-.22-.54-.54v-3.49c0-.32.22-.54.54-.54h14.97c.32,0,.54.22.54.54v3.49c0,.32-.22.54-.54.54h-4.89v20.08c0,.32-.22.54-.54.54h-4.07c-.32,0-.54-.22-.54-.54Z"/>
  <path class="cls-1" d="m460.73,410.76v-24.12c0-.32.22-.54.54-.54h12.81c.32,0,.54.22.54.54v3.49c0,.32-.22.54-.54.54h-8.21v5.58h7.74c.32,0,.54.22.54.54v3.49c0,.32-.22.54-.54.54h-7.74v5.9h8.21c.32,0,.54.22.54.54v3.49c0,.32-.22.54-.54.54h-12.81c-.32,0-.54-.22-.54-.54Z"/>
  <path class="cls-1" d="m491.05,410.94l-5.33-8.46h-1.84v8.28c0,.32-.22.54-.54.54h-4.07c-.32,0-.54-.22-.54-.54v-24.12c0-.32.22-.54.54-.54h7.6c5.97,0,8.85,3.35,8.85,8.17,0,3.67-1.62,6.44-5,7.63l5.65,8.75c.25.4.07.65-.36.65h-4.32c-.29,0-.5-.11-.65-.36Zm-4.36-13.03c2.2,0,4.1-.76,4.1-3.63s-1.91-3.6-4.1-3.6h-2.81v7.23h2.81Z"/>
  <path class="cls-1" d="m498.03,407.81c-.18-.25-.18-.5.07-.79l2.09-2.41c.25-.29.54-.32.83-.07,1.58,1.62,3.02,2.48,5.08,2.48s3.53-.9,3.53-2.7c0-1.69-1.26-2.3-3.02-3.1l-3.06-1.44c-2.66-1.22-5.04-3.13-5.04-6.88,0-4.57,3.49-7.09,7.78-7.09,2.99,0,5.4,1.19,7.38,3.31.25.25.25.54.04.83l-2.05,2.48c-.22.29-.5.36-.79.14-1.55-1.37-2.81-2.05-4.39-2.05-1.84,0-2.99.9-2.99,2.41s1.01,2.05,2.95,2.95l2.59,1.19c2.74,1.29,5.62,2.99,5.62,7.23,0,5.08-4.14,7.42-8.42,7.42-3.92,0-6.7-1.91-8.17-3.92Z"/>
  <path class="cls-1" d="m253.18,215.31c.17.02.33.02.5.03v-7.7c0,2.6-.17,5.16-.5,7.67Zm0,0c.17.02.33.02.5.03v-7.7c0,2.6-.17,5.16-.5,7.67Zm-6.86,92.13v1.42c0-.25,0-.49,0-.73,0-.23,0-.46,0-.69h-.02Zm119.1-26.86c0,.25.02.48.02.73,0,.23,0,.46,0,.69h.02v-1.42h-.02Zm-112.24-65.27c.17.02.33.02.5.03v-7.7c0,2.6-.17,5.16-.5,7.67Zm-6.85,92.82c0-.23,0-.46,0-.69h-.02v1.42h.02c0-.25-.02-.48-.02-.73Zm-52.46-122.14c-.68,0-1.35.02-2.02.08h3.96c-.64-.06-1.29-.08-1.95-.08Zm59.32,29.32c.17.02.33.02.5.03v-7.7c0,2.6-.17,5.16-.5,7.67Zm-6.86,92.13v1.42c0-.25,0-.49,0-.73,0-.23,0-.46,0-.69h-.02Z"/>
  <path class="cls-1" d="m246.35,308.86h-.02c0-.25,0-.49,0-.73,0,.25,0,.48.02.73Z"/>
  <path class="cls-1" d="m253.69,308.11c0,.25,0,.5,0,.75v-1.42c0,.22,0,.44,0,.67Z"/>
  <path class="cls-1" d="m246.34,307.44c0,.23,0,.46,0,.69,0-.23,0-.46,0-.69h.02Z"/>
  <path class="cls-1" d="m253.69,308.11c0,.25,0,.5,0,.75v-1.42c0,.22,0,.44,0,.67Z"/>
  <path class="cls-1" d="m358.09,280.58v1.42c0-.22,0-.44,0-.67,0-.25,0-.5,0-.75Z"/>
  <path class="cls-1" d="m365.45,281.99h-.02c0-.23,0-.46,0-.69,0,.23,0,.46,0,.69Z"/>
  <path class="cls-1" d="m358.09,280.58v1.42c0-.22,0-.44,0-.67,0-.25,0-.5,0-.75Z"/>
  <path class="cls-1" d="m365.45,280.58c0,.25,0,.49,0,.73,0-.25,0-.48-.02-.73h.02Z"/>
  <path class="cls-1" d="m460.14,178.34l-264.02.36h-4.61s0,0-.02,0l-39.79.05h-.03c-4.76,0-9.22,1.84-12.57,5.18-3.3,3.29-5.11,7.66-5.1,12.3v11.86s0,.02,0,.04v146.32s326.15,0,326.15,0c4.76,0,9.23-1.84,12.57-5.18,3.29-3.3,5.11-7.67,5.1-12.3l.04-141.13c-.02-9.64-7.97-17.5-17.73-17.51Zm-38.45,7.64c27.21,1.89,48.76,24.63,48.76,52.3s-21.55,50.42-48.76,52.31v-104.61Zm-7.36,104.61c-27.2-1.89-48.75-24.63-48.75-52.31s21.55-50.41,48.75-52.3v104.61Zm-48.88-104.76l23.93-.03c-10.1,5.52-18.42,13.88-23.93,23.99v-23.96Zm-119.12.16v21.64c0,27.44-21.59,49.95-48.77,51.65v-15.37c16.33-1.83,29.06-15.72,29.06-32.54,0-10.2-4.68-19.32-12.01-25.33l31.72-.05Zm-54.49.08s.02,0,.02,0c.67-.06,1.33-.08,2.02-.08s1.3.02,1.95.08h0c13.09,1,23.43,11.98,23.43,25.31,0,14-11.39,25.39-25.38,25.39s-25.38-11.39-25.38-25.39,10.3-24.26,23.34-25.3Zm-50.46,10.17c0-2.67,1.04-5.18,2.94-7.08,1.95-1.96,4.56-3.03,7.38-3.03h.02l21.37-.03c-7.29,6.02-11.94,15.11-11.94,25.28,0,16.82,12.73,30.71,29.06,32.54v15.33c-27.05-2.02-48.48-24.03-48.82-50.94v-12.07Zm0,150.86v-111.16c9.63,17.25,27.76,29.31,48.83,30.68v39.5l-40.97,40.98h-7.86Zm18.27,0l34.24-34.24,34.24,34.24h-68.48Zm86.69-38.24v38.24h-7.81l-40.96-40.97v-39.46c21.01-1.15,39.16-13.22,48.77-30.57v71.35h.02c0,.23,0,.46,0,.69,0,.25,0,.48.02.73h-.02Zm7.36,38.24v-14.96c4.02,6.15,9.48,11.29,15.91,14.96h-15.91Zm0-38.24v-1.42c0,.22,0,.44,0,.67.4-35.66,29.53-64.54,65.28-64.54,7.63,0,14.75,2.15,20.78,5.89-1.54,7.26-8.33,26.92-37.43,40.88-27.06,12.98-36.7,30.69-40.12,41.02-5.2-6.4-8.36-14.47-8.51-23.25,0,.25,0,.5,0,.75Zm104.4,38.24h-36.12c15.75-6.92,28.58-19.28,36.12-34.69v34.69Zm0-65.1c0-.22,0-.44,0-.67-.4,35.65-29.54,64.54-65.28,64.54-9.33,0-17.9-3.22-24.63-8.6,1.63-7.32,8.53-26.47,37.34-40.29,28.24-13.55,37.54-32.45,40.56-42.66,7.25,6.85,11.82,16.41,12.01,27.01,0-.25,0-.5,0-.75v1.42Zm0-24.69c-8.26-12.67-22.72-21.09-39.11-21.09-28.64,0-53.47,16.67-65.29,40.81v-54.29c6.54.54,9.69,2.6,13.26,4.94,4.29,2.82,9.16,6.01,19.46,6.26,10.77.23,16.44-3.15,21.44-6.16,4.61-2.78,8.59-5.17,16.77-5.17,8.61,0,12.51,2.41,17.03,5.21,4.07,2.51,8.6,5.32,16.44,6v23.51Zm0-30.9c-5.67-.6-8.92-2.61-12.57-4.86-4.78-2.96-10.2-6.31-20.9-6.31s-15.72,3.31-20.58,6.23c-4.73,2.85-8.81,5.33-17.46,5.11-8.2-.19-11.62-2.45-15.6-5.05-3.99-2.61-8.45-5.54-17.29-6.16-.17,0-.33-.02-.5-.03.33-2.51.5-5.08.5-7.67v-6.23c6.39.56,9.51,2.61,13.03,4.91,4.29,2.82,9.17,6.01,19.46,6.26,10.78.23,16.45-3.15,21.44-6.16,4.62-2.78,8.59-5.17,16.77-5.17,8.61,0,12.51,2.41,17.04,5.21,4.1,2.54,8.68,5.37,16.67,6.01v13.92Zm0-21.31c-5.82-.57-9.09-2.6-12.8-4.89-4.78-2.96-10.2-6.31-20.91-6.31s-15.72,3.31-20.57,6.23c-4.74,2.84-8.81,5.33-17.47,5.11-8.19-.2-11.62-2.45-15.59-5.06-3.96-2.59-8.38-5.5-17.07-6.15v-8.03h104.4v19.11Zm7.34,76.9c0-.23,0-.46,0-.69,0-.25,0-.48-.02-.73h.02v-13.8c9.58,17.62,27.77,29.9,48.88,31.19v49.14h-48.88v-65.1h-.02Zm105.04,54.98c0,2.68-1.04,5.19-2.94,7.09-1.95,1.95-4.57,3.03-7.38,3.03h-38.46v-49.14c21.05-1.28,39.19-13.51,48.8-31.04l-.02,70.06Zm.04-127.3c-5.53-10.11-13.89-18.45-24.01-23.96l13.63-.02c5.71,0,10.37,4.57,10.38,10.16v13.82Z"/>
  <path class="cls-1" d="m193.87,178.63c-.8,0-1.58.03-2.36.08h4.6c-.74-.06-1.49-.08-2.24-.08Z"/>
  <path class="cls-1" d="m134.01,207.64v.47c0-.15,0-.31,0-.47h0Z"/>
</svg>