<svg width="238" height="79" viewBox="0 0 238 79" fill="none" xmlns="http://www.w3.org/2000/svg">
<g clip-path="url(#clip0_56_827)">
<path d="M45.2591 62.1009C43.2521 49.8639 59.5155 50.1463 62.6055 40.6569C62.9848 51.1517 49.1008 53.4104 45.2591 62.1009ZM55.7083 36.2014C55.0186 36.6146 54.322 37.0347 53.6323 37.4548L53.3978 37.5994C52.777 37.9781 52.1563 38.3569 51.5424 38.7425L51.2872 38.9078C50.701 39.2728 50.1147 39.6584 49.4802 40.0716L49.3009 40.1886C48.7146 40.5812 48.1973 40.9255 47.7145 41.2698L47.6111 41.3524L47.3145 41.5521C45.5143 42.8399 44.0176 44.045 42.7624 45.2432C39.0241 48.8103 36.8239 52.7355 36.0307 57.253L36.0169 57.3356C35.9411 57.7626 35.879 58.2239 35.8307 58.706L35.8169 58.8506C35.7755 59.25 35.748 59.6907 35.7273 60.1452L35.7135 60.4138C35.6997 60.8407 35.6997 61.247 35.7135 61.6464L35.7273 62.0458C35.7411 62.3557 35.7618 62.7965 35.7962 63.2234C35.8031 63.3267 35.8169 63.4231 35.8238 63.5195L35.8514 63.7812C35.8859 64.1324 35.9273 64.518 35.9825 64.883C36.0032 65.0276 36.0238 65.1585 36.0514 65.2962L36.148 65.8747C36.1963 66.1501 36.2308 66.3842 36.279 66.5977C36.3342 66.8525 36.3963 67.1211 36.4653 67.4103L36.5963 67.9888C36.6308 68.154 36.6653 68.2849 36.6998 68.4157C36.8722 69.0768 37.0515 69.6897 37.2446 70.2957C37.4378 70.9086 37.624 71.5559 37.7964 72.2238C38.4654 72.0999 39.162 72.0379 39.8931 72.0379C47.6455 72.0379 53.3426 68.4501 58.9569 60.035C59.3983 59.3808 59.8259 58.6784 60.288 57.8934C65.7368 48.5555 66.8886 38.0194 67.1576 28.7367C66.4472 29.2531 65.7092 29.7834 64.9298 30.3343C61.9226 32.4691 58.7706 34.3697 55.7152 36.2014" fill="white"/>
<path d="M68.6198 27.3043C68.4198 37.1104 67.4197 48.4935 61.5226 58.6096C61.0467 59.4222 60.5984 60.1452 60.1432 60.827C54.2324 69.6897 48.1698 73.4703 39.8794 73.4703C39.0103 73.4703 38.1896 73.5667 37.4309 73.7664L36.7205 73.9523L36.555 73.2361C36.348 72.3478 36.1135 71.5008 35.8721 70.7226C35.6721 70.096 35.4859 69.4555 35.3066 68.7669C35.2721 68.6223 35.2376 68.4708 35.2031 68.3262L35.0652 67.734C34.9893 67.431 34.9272 67.1417 34.8721 66.8732C34.8238 66.6459 34.7824 66.3911 34.7341 66.1157L34.6307 65.5234C34.6031 65.3719 34.5824 65.2204 34.5548 65.0689C34.4996 64.6902 34.4582 64.2839 34.4168 63.912L34.3962 63.6917C34.3824 63.5471 34.3686 63.4438 34.3617 63.3267C34.3203 62.8791 34.2996 62.4177 34.2858 62.0872V61.977C34.2789 61.8461 34.272 61.7566 34.272 61.6671C34.2582 61.2401 34.2651 60.8132 34.272 60.3518L34.2858 60.0764C34.3065 59.5943 34.3341 59.126 34.3824 58.6784L34.3962 58.5407C34.4513 58.0311 34.5203 57.5422 34.5962 57.0808L34.61 56.9982C35.4583 52.1708 37.8033 47.9771 41.7692 44.1965C43.0728 42.95 44.6246 41.6967 46.4938 40.3608L46.8317 40.1198C47.3421 39.7617 47.8801 39.3967 48.4801 38.9973L48.687 38.8596C49.3285 38.4395 49.9285 38.0539 50.5217 37.6751L50.7838 37.5167C51.4045 37.1242 52.0253 36.7455 52.6529 36.3598L52.8529 36.2359C53.584 35.7951 54.2737 35.3751 54.9703 34.955C57.9982 33.137 61.1295 31.2502 64.0884 29.143C65.3023 28.2822 66.4127 27.4765 67.4818 26.6914L68.6543 25.8306L68.6267 27.2836L68.6198 27.3043ZM66.8472 22.7042C65.2954 23.868 63.709 25.0249 62.0054 26.2369C59.1638 28.2615 56.0877 30.107 53.115 31.8975C52.4184 32.3175 51.7218 32.7376 51.0183 33.1577C50.9424 33.2059 50.8597 33.2541 50.7769 33.3023C50.1423 33.6879 49.5009 34.0805 48.8733 34.4799C48.7836 34.5349 48.6939 34.59 48.5974 34.652C47.9628 35.0514 47.3352 35.4577 46.7076 35.8709C46.6386 35.9191 46.5627 35.9673 46.4938 36.0155C45.8109 36.47 45.135 36.9314 44.466 37.3997C44.466 37.3997 44.466 37.3997 44.4591 37.4065C42.6176 38.715 40.8657 40.0991 39.2862 41.6072C34.7479 45.9387 32.0097 50.9106 31.051 56.4817C30.9545 57.0395 30.8786 57.6042 30.8165 58.1757C30.8165 58.2239 30.8027 58.279 30.8027 58.3272C30.7476 58.8575 30.7131 59.3946 30.6924 59.9386C30.6924 60.035 30.6855 60.1383 30.6786 60.2347C30.6648 60.7374 30.6579 61.247 30.6786 61.7635C30.6786 61.915 30.6855 62.0665 30.6924 62.2249C30.7131 62.7001 30.7338 63.1752 30.7751 63.6504C30.7958 63.8638 30.8165 64.0773 30.8372 64.2908C30.8855 64.7246 30.9338 65.1585 30.9959 65.5992C31.0372 65.8815 31.0855 66.1708 31.1407 66.46C31.2097 66.8456 31.2648 67.2244 31.3476 67.61C31.4304 68.0025 31.5269 68.395 31.6166 68.7876C31.6856 69.0837 31.7476 69.3798 31.8304 69.6828C32.0166 70.3852 32.2167 71.1014 32.4443 71.8176C33.5478 75.2883 33.8996 79.0069 33.9065 79.0138H36.0515C36.3136 79.1239 36.486 77.0649 39.8794 77.0649C49.3906 77.0649 56.5567 72.6715 63.1297 62.824C63.6608 62.0321 64.1574 61.2264 64.6264 60.4207C72.2615 47.3298 72.3098 32.6894 72.2477 18.4622C70.4338 19.9704 68.6681 21.3545 66.8472 22.718" fill="white"/>
<path d="M24.2435 74.4688C18.8775 73.2568 14.4357 70.9637 11.0492 67.6582C6.17295 62.8998 3.60031 56.0547 3.60031 47.8669V3.58778H18.8085V47.8669C18.8085 52.2053 20.2156 55.4419 22.9882 57.4802L23.3124 57.7212L23.2779 58.1206C22.8572 63.0375 23.471 68.2298 25.0987 73.5667L25.4574 74.7511L24.2504 74.4757L24.2435 74.4688ZM27.2024 55.6829C23.0986 54.1748 22.3951 51.0002 22.3951 47.86V0H0V47.8669C0 66.5839 12.1459 78.394 31.8166 79C30.9406 78.0841 29.7267 76.3281 28.6715 72.9951C26.7196 66.8525 26.2506 61.0404 27.2024 55.6829Z" fill="white"/>
<path d="M48.0525 26.1405V3.58778H63.2607V15.9625L62.9779 16.176C61.4191 17.3604 59.7155 18.6069 57.6257 20.0943C54.9979 21.9674 52.0597 23.7303 49.225 25.4381L48.0594 26.1405H48.0525ZM59.7017 23.021C62.2606 21.1961 64.5642 19.5159 66.8472 17.7254V0H44.4521V32.6206C46.6316 31.1882 48.8594 29.8385 51.0665 28.5094C53.9771 26.7603 56.9774 24.9561 59.7017 23.0141" fill="white"/>
<path d="M17.3602 6.13571L5.02808 18.4485V21.3821L17.3602 9.06929V6.13571Z" fill="white"/>
<path d="M17.3602 11.1008L5.02808 23.4066V26.3402L17.3602 14.0343V11.1008Z" fill="white"/>
<path d="M17.3602 16.0589L5.02808 28.3717V31.3053L17.3602 18.9925V16.0589Z" fill="white"/>
<path d="M5.02808 41.2285L17.3602 28.9226V25.989L5.02808 38.3018V41.2285Z" fill="white"/>
<path d="M17.3602 21.024L5.02808 33.3367V36.2703L17.3602 23.9576V21.024Z" fill="white"/>
<path d="M21.8019 58.3892C21.4088 58.0793 21.0432 57.7419 20.6984 57.3907L11.7458 66.3291C11.8493 66.4324 11.939 66.5357 12.0424 66.6321C12.4356 67.0178 12.8494 67.3828 13.2701 67.7408L21.7467 59.2707C21.7605 58.9745 21.7674 58.6784 21.795 58.3892" fill="white"/>
<path d="M8.53873 5.02014L5.02808 8.5184V11.452L11.4769 5.02014H8.53873Z" fill="white"/>
<path d="M5.02808 5.02014V6.49382L6.50407 5.02014H5.02808Z" fill="white"/>
<path d="M5.02808 16.417L16.4429 5.02014H13.5047L5.02808 13.4834V16.417Z" fill="white"/>
<path d="M17.3602 40.8773L5.38672 52.825C5.51087 53.6652 5.6695 54.4915 5.85572 55.2904L17.3602 43.8108V40.8773Z" fill="white"/>
<path d="M22.0089 66.0124L17.4844 70.5298C18.1327 70.8673 18.7948 71.1771 19.4845 71.4664L22.3882 68.5672C22.2365 67.7133 22.1055 66.8663 22.002 66.0193" fill="white"/>
<path d="M21.7122 61.3503L14.415 68.6361C14.9806 69.0493 15.5738 69.4349 16.1876 69.7999L21.8295 64.1737C21.7536 63.2234 21.7191 62.2869 21.7122 61.3572" fill="white"/>
<path d="M17.3602 30.9472L5.02808 43.2599V46.1935L17.3602 33.8808V30.9472Z" fill="white"/>
<path d="M20.9604 72.0241C21.6847 72.2789 22.4226 72.52 23.1951 72.7265L23.3193 72.6026C23.1055 71.8175 22.9123 71.0325 22.7399 70.2475L20.9604 72.0241Z" fill="white"/>
<path d="M18.6845 54.4433L9.50439 63.6091C9.90443 64.1806 10.3321 64.7315 10.7873 65.2618L19.7812 56.282C19.3604 55.7104 18.9949 55.0976 18.6845 54.4365" fill="white"/>
<path d="M17.5601 50.6008L7.67651 60.4689C7.99378 61.1231 8.33174 61.7635 8.70419 62.3764L18.1119 52.9834C17.8705 52.2328 17.6843 51.4409 17.5601 50.6008Z" fill="white"/>
<path d="M17.3601 35.9122L5.03491 48.2181C5.04181 49.1684 5.09009 50.105 5.17285 51.014L17.3601 38.8458V35.9122Z" fill="white"/>
<path d="M17.3602 47.8669V45.8354L6.29028 56.8949C6.51099 57.6386 6.77308 58.3617 7.05587 59.0709L17.3878 48.7552C17.374 48.466 17.3671 48.1699 17.3671 47.8669" fill="white"/>
<path d="M53.2667 5.02014L49.4871 8.80074V11.7343L56.2049 5.02014H53.2667Z" fill="white"/>
<path d="M61.8192 14.3098V11.3762L49.7078 23.4686C52.1287 22.0087 54.5703 20.5075 56.7842 18.9305C57.2808 18.5793 57.7567 18.235 58.212 17.9113L61.8192 14.3098Z" fill="white"/>
<path d="M49.4871 5.02014V6.76927L51.2389 5.02014H49.4871Z" fill="white"/>
<path d="M58.2395 5.02014L49.4871 13.7589V16.6994L61.1777 5.02014H58.2395Z" fill="white"/>
<path d="M61.8192 6.41116L49.4871 18.7239V21.6575L61.8192 9.34474V6.41116Z" fill="white"/>
<path d="M98.8984 50.9657C107.589 50.9657 112.775 46.2004 112.775 38.226V19.5365H107.499V38.226C107.499 43.0189 104.444 45.6564 98.8984 45.6564C93.3531 45.6564 90.2976 43.0189 90.2976 38.226V19.5365H85.0144V38.226C85.0144 46.2004 90.2011 50.9657 98.8915 50.9657" fill="white"/>
<path d="M149.172 19.5434H143.813V41.4695L125.356 19.5434H118.472L122.493 24.3845V50.2909H127.735V30.6442L144.151 50.2909H149.172V19.5434Z" fill="white"/>
<path d="M163.649 19.5434H158.414V50.2909H163.649V19.5434Z" fill="white"/>
<path d="M199.962 45.4154L200.224 45.1261L196.934 40.6638L196.548 41.1803C194.41 44.0312 191.092 45.6633 187.451 45.6633C181.209 45.6633 176.132 40.8842 176.132 34.9963C176.132 28.6334 180.878 24.0126 187.409 24.0126C190.616 24.0126 193.665 25.266 195.782 27.4627L196.148 27.8414L199.576 23.8336L199.266 23.5237C196.134 20.3973 191.934 18.6689 187.444 18.6689C178.312 18.6689 170.891 25.7618 170.891 34.4799C170.891 43.7282 178.146 50.9726 187.409 50.9726C192.23 50.9726 196.81 48.9481 199.969 45.4223" fill="white"/>
<path d="M221.481 45.6564C215.239 45.6564 210.163 40.8704 210.163 34.9894C210.163 28.6265 214.908 24.0058 221.44 24.0058C227.972 24.0058 232.717 28.7091 232.717 34.7071C232.717 40.7051 227.778 45.6495 221.474 45.6495M221.481 18.662C212.35 18.662 204.928 25.7549 204.928 34.473C204.928 43.7213 212.184 50.9657 221.447 50.9657C230.71 50.9657 238.007 43.7833 238.007 34.955C238.007 26.1267 230.751 18.662 221.488 18.662" fill="white"/>
<path d="M88.0284 62.1147C88.4284 62.1147 88.725 62.2111 89.0768 62.4659L89.5044 62.0389C88.9526 61.5845 88.4146 61.433 87.7663 61.433C86.9869 61.433 86.3317 61.6877 85.8144 62.2249C85.2764 62.7482 85.0212 63.4369 85.0212 64.3046C85.0212 65.1722 85.2764 65.8471 85.8144 66.3842C86.3386 66.9076 86.9938 67.1624 87.7663 67.1624C88.4215 67.1624 88.9526 67.004 89.5044 66.5564L89.0768 66.1294C88.725 66.3842 88.4284 66.4806 88.0284 66.4806C87.4628 66.4806 87.0766 66.2809 86.8145 65.8884C86.5593 65.5097 86.4007 64.9863 86.4007 64.3046C86.4007 63.6228 86.5593 63.0926 86.8145 62.7069C87.0835 62.3144 87.4697 62.1147 88.0284 62.1147Z" fill="white"/>
<path d="M94.8288 66.0537C94.5874 66.3636 94.2633 66.522 93.7943 66.522C93.3253 66.522 93.0149 66.3705 92.7735 66.0537C92.5183 65.73 92.3183 65.1378 92.3183 64.2564C92.3183 63.3749 92.5183 62.7827 92.7597 62.4453C93.0011 62.1216 93.3253 61.9494 93.7943 61.9494C94.2633 61.9494 94.5874 62.1216 94.8288 62.4453C95.0702 62.7965 95.2703 63.3956 95.2703 64.2564C95.2703 65.1171 95.0702 65.73 94.8288 66.0537ZM93.7943 61.3228C93.0287 61.3228 92.3803 61.6051 91.8562 62.1698C91.332 62.7207 91.063 63.4162 91.063 64.2357C91.063 65.1103 91.332 65.8333 91.87 66.3705C92.3941 66.8938 93.0425 67.1624 93.7943 67.1624C94.5461 67.1624 95.1944 66.9076 95.7186 66.3842C96.2565 65.8471 96.5255 65.124 96.5255 64.2357C96.5255 63.43 96.2703 62.7345 95.7462 62.1698C95.2082 61.6051 94.553 61.3228 93.7943 61.3228Z" fill="white"/>
<path d="M100.485 58.1275C100.16 58.3135 99.8915 58.5614 99.6776 58.9057C99.4776 59.2156 99.3397 59.5392 99.2914 59.8698C99.25 60.1521 99.2224 60.5791 99.2224 61.1024V61.3985H98.2568V62.0527H99.2224V66.942H100.498V62.0527H101.588V61.3985H100.498V61.1851C100.498 60.2485 100.512 59.6425 100.554 59.3602C100.581 59.1054 100.678 58.9057 100.864 58.7404C101.029 58.582 101.216 58.4994 101.43 58.4994C101.671 58.4994 101.871 58.5682 102.195 58.8919L102.705 58.3961C102.34 58.0173 102.112 57.9003 101.657 57.859C101.188 57.8176 100.809 57.9554 100.485 58.1275Z" fill="white"/>
<path d="M106.161 58.1275C105.837 58.3135 105.568 58.5614 105.354 58.9057C105.154 59.2156 105.016 59.5392 104.968 59.8698C104.926 60.1521 104.899 60.5791 104.899 61.1024V61.3985H103.933V62.0527H104.899V66.942H106.175V62.0527H107.264V61.3985H106.175V61.1851C106.175 60.2485 106.188 59.6425 106.23 59.3602C106.257 59.1054 106.361 58.9057 106.54 58.7404C106.713 58.582 106.899 58.4994 107.106 58.4994C107.347 58.4994 107.547 58.5682 107.871 58.8919L108.382 58.3961C108.016 58.0173 107.789 57.9003 107.333 57.859C106.864 57.8176 106.485 57.9554 106.161 58.1275Z" fill="white"/>
<path d="M111.492 61.9563C112.286 61.9563 112.568 62.6243 112.637 63.0031H110.354C110.513 62.2662 110.892 61.9563 111.485 61.9563M113.755 63.5953C113.755 62.886 113.61 62.4246 113.217 61.9839C112.803 61.5294 112.237 61.3159 111.534 61.3159C110.782 61.3159 110.134 61.612 109.637 62.1767C109.127 62.7414 108.885 63.4507 108.885 64.2977C108.885 64.8762 109.009 65.3995 109.265 65.8265C109.534 66.2534 109.858 66.5771 110.272 66.8112C110.685 67.0385 111.12 67.1486 111.589 67.1486C112.086 67.1486 112.541 67.0178 112.961 66.7699C113.203 66.6253 113.403 66.4462 113.644 66.1019L113.175 65.6336C112.761 66.2465 112.355 66.4669 111.761 66.4669C111.265 66.4669 110.913 66.2672 110.658 65.8747C110.403 65.4684 110.258 64.8417 110.258 63.9534C110.258 63.8707 110.272 63.7399 110.272 63.5815H113.755V63.5953Z" fill="white"/>
<path d="M118.514 61.9563C119.307 61.9563 119.59 62.6243 119.659 63.0031H117.383C117.541 62.2662 117.921 61.9563 118.514 61.9563ZM120.783 63.5953C120.783 62.886 120.645 62.4246 120.245 61.9839C119.831 61.5294 119.266 61.3159 118.562 61.3159C117.81 61.3159 117.162 61.612 116.665 62.1767C116.155 62.7414 115.914 63.4507 115.914 64.2977C115.914 64.8762 116.038 65.3995 116.293 65.8265C116.562 66.2534 116.886 66.5771 117.3 66.8112C117.707 67.0385 118.148 67.1486 118.617 67.1486C119.114 67.1486 119.569 67.0178 119.99 66.7699C120.231 66.6253 120.431 66.4462 120.673 66.1019L120.204 65.6336C119.79 66.2465 119.383 66.4669 118.79 66.4669C118.293 66.4669 117.941 66.2672 117.686 65.8747C117.431 65.4684 117.293 64.8417 117.293 63.9534C117.293 63.8707 117.307 63.7399 117.307 63.5815H120.79L120.783 63.5953Z" fill="white"/>
<path d="M127.949 61.9701V61.1782H126.763V66.9489H128.025V64.0635C128.025 63.5953 128.066 63.2441 128.121 63.003C128.19 62.7758 128.321 62.5348 128.563 62.3213C128.977 61.9425 129.266 61.8668 129.818 62.2249L130.156 61.5294C129.335 61.0749 128.473 61.3159 127.949 61.9701Z" fill="white"/>
<path d="M135.363 66.0537C135.122 66.3636 134.798 66.522 134.329 66.522C133.86 66.522 133.55 66.3705 133.308 66.0537C133.053 65.73 132.853 65.1378 132.853 64.2564C132.853 63.3749 133.053 62.7827 133.294 62.4453C133.536 62.1216 133.86 61.9494 134.329 61.9494C134.798 61.9494 135.122 62.1216 135.363 62.4453C135.605 62.7965 135.805 63.3956 135.805 64.2564C135.805 65.1171 135.605 65.73 135.363 66.0537ZM134.329 61.3228C133.563 61.3228 132.915 61.6051 132.391 62.1698C131.867 62.7207 131.598 63.4162 131.598 64.2357C131.598 65.1103 131.867 65.8333 132.405 66.3705C132.929 66.8938 133.577 67.1624 134.329 67.1624C135.081 67.1624 135.729 66.9076 136.253 66.3842C136.791 65.8471 137.06 65.124 137.06 64.2357C137.06 63.43 136.805 62.7345 136.281 62.1698C135.743 61.6051 135.088 61.3228 134.329 61.3228Z" fill="white"/>
<path d="M142.688 65.5923C142.35 65.8609 141.771 66.2741 141.316 66.2741C141.143 66.2741 141.019 66.219 140.902 66.1019C140.805 65.9779 140.75 65.8058 140.75 65.5785C140.75 65.0276 141.192 64.518 142.247 64.098L142.688 63.912V65.5923ZM143.137 61.55C142.799 61.3641 142.357 61.2815 141.806 61.2815C141.137 61.2815 140.674 61.4399 140.123 61.7911L140.592 62.2593C140.943 62.0045 141.212 61.9081 141.681 61.9081C141.978 61.9081 142.192 61.9632 142.344 62.0665C142.516 62.1836 142.599 62.2938 142.626 62.3902C142.654 62.5348 142.681 62.762 142.681 63.1132V63.2578L141.819 63.5953C141.068 63.9052 140.488 64.2288 140.047 64.5525C139.578 64.9037 139.454 65.2342 139.454 65.7094C139.454 66.219 140.033 67.0935 140.799 67.0935C141.095 67.0935 141.433 67.0109 141.792 66.8525C142.075 66.7286 142.371 66.5564 142.681 66.3567V67.0798C143.73 67.0798 143.944 67.0935 143.944 67.0935V63.251C143.944 62.8102 143.888 62.459 143.785 62.2042C143.675 61.9494 143.447 61.736 143.137 61.5569" fill="white"/>
<path d="M148.709 63.5953C148.302 63.2992 148.054 63.0581 147.93 62.8997C147.833 62.7276 147.792 62.5899 147.833 62.4177C147.861 62.2593 147.93 62.1491 148.089 62.0527C148.22 61.9563 148.385 61.9288 148.585 61.9701C148.84 62.0252 149.054 62.1698 149.309 62.6036L149.834 62.2524C149.509 61.7015 149.151 61.433 148.689 61.3503C148.227 61.2539 147.813 61.3503 147.468 61.6327C147.144 61.915 146.944 62.2387 146.861 62.6036C146.792 62.9893 146.847 63.3405 147.047 63.6641C147.233 63.974 147.571 64.2977 148.027 64.6558C148.468 64.9794 148.723 65.2342 148.833 65.4064C148.944 65.5648 148.971 65.7438 148.93 65.9573C148.889 66.1432 148.806 66.2947 148.633 66.4255C148.509 66.5357 148.309 66.5839 148.04 66.5357C147.682 66.4669 147.42 66.2672 147.151 65.7713L146.702 66.0743L146.578 66.157L146.592 66.6941C146.737 66.5426 146.813 66.4669 146.854 66.4187C147.185 66.8387 147.537 67.0591 147.951 67.1417C148.42 67.2244 148.854 67.1555 149.24 66.9145C149.62 66.6735 149.861 66.3085 149.951 65.8264C150.02 65.5303 149.992 65.186 149.896 64.8348C149.785 64.4561 149.371 64.0291 148.737 63.5884" fill="white"/>
<path d="M154.972 66.3842C154.862 66.3842 154.758 66.3429 154.648 66.2741C154.544 66.1914 154.475 66.1019 154.448 65.9779C154.42 65.8333 154.393 65.5372 154.393 65.0621V62.1767H155.938V61.5363H154.393V59.9386H153.158V61.5363H152.406V62.1767H153.158V64.8761C153.158 65.4684 153.172 65.8884 153.241 66.1501C153.31 66.4324 153.468 66.6735 153.724 66.8732C153.979 67.0729 154.289 67.1693 154.613 67.1693C154.91 67.1693 155.193 67.1004 155.462 66.942C155.744 66.7836 155.958 66.5426 156.172 66.1088L155.689 65.8127C155.393 66.2672 155.193 66.3911 154.965 66.3911" fill="white"/>
<path d="M159.331 58.1551C159.104 58.1551 158.91 58.2377 158.738 58.4099C158.579 58.5682 158.497 58.7611 158.497 58.9883C158.497 59.2293 158.579 59.429 158.738 59.5943C158.91 59.7665 159.11 59.8491 159.331 59.8491C159.573 59.8491 159.773 59.7665 159.924 59.5943C160.083 59.4221 160.166 59.2293 160.166 58.9883C160.166 58.7611 160.083 58.5614 159.924 58.4099C159.766 58.2446 159.573 58.1551 159.331 58.1551Z" fill="white"/>
<path d="M158.697 61.1782V63.3267V63.4093V64.9794V66.9489H159.973V64.9794V64.0635V61.1782H159.648H158.697Z" fill="white"/>
<path d="M166.911 61.5018C166.601 61.2883 166.215 61.1782 165.766 61.1782C165.042 61.1782 164.463 61.4881 163.966 61.9839V61.1782H162.704V66.9489H163.966V62.8929C164.318 62.4866 164.842 61.9907 165.428 61.9907C165.67 61.9907 165.849 62.0458 165.994 62.1767C166.152 62.2938 166.235 62.4315 166.263 62.5899C166.29 62.7896 166.304 63.1132 166.304 63.5471V66.9558H167.58V62.9411C167.58 62.6863 167.553 62.5554 167.539 62.5003C167.497 62.0321 167.201 61.7222 166.918 61.5087" fill="white"/>
<path d="M172.07 62.342C172.229 62.1009 172.449 62.0321 172.849 62.0321C173.146 62.0321 173.387 62.0734 173.601 62.2869C173.801 62.4728 173.925 62.8653 173.925 63.5126C173.925 64.16 173.815 64.5456 173.615 64.7728C173.415 64.9725 173.187 65.0276 172.877 65.0276C172.525 65.0276 172.284 64.9725 172.098 64.7591C171.911 64.5456 171.787 64.1806 171.787 63.6297C171.787 63.0237 171.898 62.5968 172.07 62.342ZM174.588 66.6941C174.477 66.6666 174.263 66.6528 174.022 66.639C173.781 66.6253 173.484 66.6115 173.174 66.6115C172.567 66.5977 171.911 66.5702 171.546 66.5013C171.304 66.46 171.291 66.3429 171.346 66.1914C171.415 65.9917 171.684 65.7989 172.636 65.7645C173.574 65.7232 174.263 65.4959 174.691 65.0414C175.098 64.5869 175.312 64.0773 175.312 63.4989C175.312 63.0581 175.188 62.6381 174.946 62.2524C174.594 61.6878 173.615 61.2884 172.836 61.2884C172.187 61.2884 171.636 61.5018 171.153 61.9081C170.684 62.3351 170.442 62.8584 170.442 63.4644C170.442 64.2564 170.842 64.8693 171.463 65.3169C170.849 65.5166 170.498 65.8953 170.498 66.4875C170.498 66.8525 170.663 67.1486 170.994 67.3621C171.291 67.5756 172.084 67.6031 173.091 67.6031C174.181 67.6031 174.636 67.8441 174.829 68.0714C174.932 68.1954 174.974 68.3262 174.988 68.4501C175.015 68.5948 175.001 68.7325 175.001 68.8289C175.001 69.1663 174.863 69.4487 174.532 69.6759C174.208 69.9169 173.739 70.0409 173.118 70.0409C171.236 70.0409 171.008 69.1181 171.008 68.5672H170.16C170.146 68.7531 170.146 68.7669 170.146 68.7945C170.146 69.3454 170.442 69.8136 170.98 70.1511C171.504 70.4885 172.215 70.6607 173.063 70.6607C173.981 70.6607 174.719 70.4747 175.243 70.0822C175.767 69.7035 176.036 69.1663 176.036 68.5259C176.036 68.0714 175.912 67.672 175.643 67.3346C175.388 66.9971 175.036 66.7699 174.594 66.6735" fill="white"/>
<path d="M185.526 61.4743C185.216 61.2746 184.816 61.1782 184.368 61.1782C183.685 61.1782 183.119 61.4467 182.657 61.9288V57.8727H182.319C182.278 57.8865 182.292 57.8727 182.264 57.8727H181.402V66.9352H182.664V62.948C182.85 62.5968 183.057 62.342 183.285 62.1836C183.512 62.0114 183.781 61.9288 184.064 61.9288C184.319 61.9288 184.519 61.9839 184.671 62.1009C184.83 62.218 184.926 62.342 184.968 62.5072C185.009 62.6932 185.037 62.9893 185.037 63.43V66.9352H186.299V63.5609C186.299 62.9617 186.257 62.5279 186.154 62.2318C186.057 61.9357 185.844 61.6809 185.533 61.4812" fill="white"/>
<path d="M192.465 66.0537C192.224 66.3636 191.899 66.522 191.43 66.522C190.961 66.522 190.651 66.3705 190.41 66.0537C190.154 65.73 189.954 65.1378 189.954 64.2564C189.954 63.3749 190.154 62.7827 190.396 62.4453C190.637 62.1216 190.961 61.9494 191.43 61.9494C191.899 61.9494 192.224 62.1216 192.465 62.4453C192.706 62.7965 192.906 63.3956 192.906 64.2564C192.906 65.1171 192.706 65.73 192.465 66.0537ZM191.437 61.3228C190.672 61.3228 190.023 61.6051 189.499 62.1698C188.975 62.7207 188.706 63.4162 188.706 64.2357C188.706 65.1103 188.975 65.8333 189.513 66.3705C190.037 66.8938 190.686 67.1624 191.437 67.1624C192.189 67.1624 192.837 66.9076 193.362 66.3842C193.9 65.8471 194.169 65.124 194.169 64.2357C194.169 63.43 193.913 62.7345 193.389 62.1698C192.851 61.6051 192.203 61.3228 191.437 61.3228Z" fill="white"/>
<path d="M200.231 63.4438V64.6007C200.231 65.0276 200.176 65.3237 200.073 65.5234C199.99 65.7231 199.817 65.9228 199.548 66.1157C199.279 66.3154 199.01 66.398 198.741 66.398C198.541 66.398 198.39 66.3429 198.245 66.2603C198.107 66.1639 198.031 66.0468 198.003 65.9504C197.962 65.8058 197.948 65.5854 197.948 65.2273V61.5363H196.686V65.186C196.686 65.6405 196.741 66.0055 196.858 66.2603C196.969 66.5288 197.183 66.7423 197.465 66.9076C197.748 67.0798 198.086 67.1624 198.459 67.1624C199.169 67.1624 199.762 66.8663 200.217 66.3429V67.004H201.459V61.5363H200.224V63.4438H200.231Z" fill="white"/>
<path d="M206.287 63.5953C205.873 63.2992 205.632 63.0581 205.507 62.8997C205.411 62.7276 205.363 62.5899 205.411 62.4177C205.438 62.2593 205.507 62.1491 205.666 62.0527C205.797 61.9563 205.963 61.9288 206.163 61.9701C206.418 62.0252 206.632 62.1698 206.887 62.6036L207.411 62.2524C207.087 61.7015 206.728 61.433 206.266 61.3503C205.797 61.2539 205.39 61.3503 205.045 61.6327C204.721 61.915 204.521 62.2387 204.438 62.6036C204.369 62.9893 204.425 63.3405 204.625 63.6641C204.811 63.974 205.149 64.2977 205.604 64.6558C206.045 64.9794 206.301 65.2342 206.411 65.4064C206.521 65.5648 206.549 65.7438 206.508 65.9573C206.466 66.1432 206.383 66.2947 206.211 66.4255C206.087 66.5357 205.887 66.5839 205.618 66.5357C205.266 66.4669 204.997 66.2672 204.728 65.7713L204.28 66.0743L204.149 66.157L204.162 66.6941C204.307 66.5426 204.376 66.4669 204.425 66.4187C204.756 66.8387 205.107 67.0591 205.521 67.1417C205.99 67.2244 206.425 67.1555 206.811 66.9145C207.19 66.6735 207.432 66.3085 207.521 65.8264C207.59 65.5303 207.563 65.186 207.466 64.8348C207.356 64.4561 206.942 64.0291 206.307 63.5884" fill="white"/>
<path d="M212.515 61.9563C213.308 61.9563 213.591 62.6243 213.66 63.0031H211.384C211.543 62.2662 211.922 61.9563 212.515 61.9563ZM214.784 63.5953C214.784 62.886 214.646 62.4246 214.246 61.9839C213.832 61.5294 213.267 61.3159 212.563 61.3159C211.812 61.3159 211.163 61.612 210.667 62.1767C210.156 62.7414 209.915 63.4507 209.915 64.2977C209.915 64.8762 210.039 65.3995 210.294 65.8265C210.563 66.2534 210.887 66.5771 211.301 66.8112C211.708 67.0385 212.149 67.1486 212.618 67.1486C213.115 67.1486 213.57 67.0178 213.991 66.7699C214.232 66.6253 214.432 66.4462 214.667 66.1019L214.198 65.6336C213.791 66.2465 213.377 66.4669 212.784 66.4669C212.287 66.4669 211.936 66.2672 211.68 65.8747C211.425 65.4684 211.28 64.8417 211.28 63.9534C211.28 63.8707 211.294 63.7399 211.294 63.5815H214.777L214.784 63.5953Z" fill="white"/>
</g>
<defs>
<clipPath id="clip0_56_827">
<rect width="238" height="79" fill="white"/>
</clipPath>
</defs>
</svg>
